<mxfile host="app.diagrams.net" agent="Mozilla/5.0 (Windows NT 10.0; Win64; x64) AppleWebKit/537.36 (KHTML, like Gecko) Chrome/140.0.0.0 Safari/537.36 Edg/140.0.0.0" version="28.2.2">
  <diagram name="ページ1" id="uA7jqYEqipXoBsCfcSW4">
    <mxGraphModel dx="778" dy="460" grid="1" gridSize="10" guides="1" tooltips="1" connect="1" arrows="1" fold="1" page="1" pageScale="1" pageWidth="827" pageHeight="1169" math="0" shadow="0">
      <root>
        <mxCell id="0" />
        <mxCell id="1" parent="0" />
        <mxCell id="7X8hMR-USZ19NnBhwpr9-1" value="ユーザー" style="shape=umlActor;verticalLabelPosition=bottom;verticalAlign=top;html=1;outlineConnect=0;" vertex="1" parent="1">
          <mxGeometry x="110" y="140" width="30" height="60" as="geometry" />
        </mxCell>
        <mxCell id="7X8hMR-USZ19NnBhwpr9-2" value="RoboDog&lt;div&gt;システムメニュー&lt;/div&gt;" style="shape=umlBoundary;whiteSpace=wrap;html=1;" vertex="1" parent="1">
          <mxGeometry x="240" y="40" width="100" height="80" as="geometry" />
        </mxCell>
        <mxCell id="7X8hMR-USZ19NnBhwpr9-3" value="" style="endArrow=classic;html=1;rounded=0;exitX=1;exitY=0.3333333333333333;exitDx=0;exitDy=0;exitPerimeter=0;entryX=0.007;entryY=0.508;entryDx=0;entryDy=0;entryPerimeter=0;" edge="1" parent="1" source="7X8hMR-USZ19NnBhwpr9-1" target="7X8hMR-USZ19NnBhwpr9-2">
          <mxGeometry width="50" height="50" relative="1" as="geometry">
            <mxPoint x="150" y="290" as="sourcePoint" />
            <mxPoint x="200" y="240" as="targetPoint" />
          </mxGeometry>
        </mxCell>
        <mxCell id="7X8hMR-USZ19NnBhwpr9-4" value="" style="endArrow=classic;html=1;rounded=0;exitX=0.987;exitY=0.533;exitDx=0;exitDy=0;exitPerimeter=0;entryX=0.171;entryY=0.183;entryDx=0;entryDy=0;entryPerimeter=0;" edge="1" parent="1" source="7X8hMR-USZ19NnBhwpr9-2" target="7X8hMR-USZ19NnBhwpr9-5">
          <mxGeometry width="50" height="50" relative="1" as="geometry">
            <mxPoint x="170" y="189" as="sourcePoint" />
            <mxPoint x="241" y="120" as="targetPoint" />
          </mxGeometry>
        </mxCell>
        <mxCell id="7X8hMR-USZ19NnBhwpr9-5" value="表示&lt;div&gt;２１&lt;/div&gt;" style="ellipse;shape=umlControl;whiteSpace=wrap;html=1;" vertex="1" parent="1">
          <mxGeometry x="420" y="110" width="70" height="80" as="geometry" />
        </mxCell>
        <mxCell id="7X8hMR-USZ19NnBhwpr9-6" value="時刻入力画面" style="shape=umlBoundary;whiteSpace=wrap;html=1;" vertex="1" parent="1">
          <mxGeometry x="240" y="210" width="100" height="80" as="geometry" />
        </mxCell>
        <mxCell id="7X8hMR-USZ19NnBhwpr9-7" value="" style="endArrow=classic;html=1;rounded=0;exitX=1;exitY=0.3333333333333333;exitDx=0;exitDy=0;exitPerimeter=0;entryX=-0.007;entryY=0.475;entryDx=0;entryDy=0;entryPerimeter=0;" edge="1" parent="1" source="7X8hMR-USZ19NnBhwpr9-1" target="7X8hMR-USZ19NnBhwpr9-6">
          <mxGeometry width="50" height="50" relative="1" as="geometry">
            <mxPoint x="180" y="189" as="sourcePoint" />
            <mxPoint x="251" y="120" as="targetPoint" />
          </mxGeometry>
        </mxCell>
        <mxCell id="7X8hMR-USZ19NnBhwpr9-9" value="挨拶を選択" style="text;html=1;align=center;verticalAlign=middle;resizable=0;points=[];autosize=1;strokeColor=none;fillColor=none;" vertex="1" parent="1">
          <mxGeometry x="140" y="80" width="80" height="30" as="geometry" />
        </mxCell>
        <mxCell id="7X8hMR-USZ19NnBhwpr9-10" value="時刻を入力" style="text;html=1;align=center;verticalAlign=middle;resizable=0;points=[];autosize=1;strokeColor=none;fillColor=none;" vertex="1" parent="1">
          <mxGeometry x="170" y="170" width="80" height="30" as="geometry" />
        </mxCell>
        <mxCell id="7X8hMR-USZ19NnBhwpr9-11" value="" style="endArrow=classic;html=1;rounded=0;exitX=0.038;exitY=0.825;exitDx=0;exitDy=0;exitPerimeter=0;entryX=1.007;entryY=0.483;entryDx=0;entryDy=0;entryPerimeter=0;" edge="1" parent="1" source="7X8hMR-USZ19NnBhwpr9-5" target="7X8hMR-USZ19NnBhwpr9-6">
          <mxGeometry width="50" height="50" relative="1" as="geometry">
            <mxPoint x="350" y="330" as="sourcePoint" />
            <mxPoint x="410" y="270" as="targetPoint" />
          </mxGeometry>
        </mxCell>
        <mxCell id="7X8hMR-USZ19NnBhwpr9-12" value="時刻を設定" style="ellipse;shape=umlControl;whiteSpace=wrap;html=1;" vertex="1" parent="1">
          <mxGeometry x="470" y="260" width="70" height="80" as="geometry" />
        </mxCell>
        <mxCell id="7X8hMR-USZ19NnBhwpr9-14" value="" style="endArrow=classic;html=1;rounded=0;exitX=0.98;exitY=0.525;exitDx=0;exitDy=0;exitPerimeter=0;entryX=0.143;entryY=0.25;entryDx=0;entryDy=0;entryPerimeter=0;" edge="1" parent="1" source="7X8hMR-USZ19NnBhwpr9-6" target="7X8hMR-USZ19NnBhwpr9-12">
          <mxGeometry width="50" height="50" relative="1" as="geometry">
            <mxPoint x="462" y="200" as="sourcePoint" />
            <mxPoint x="380" y="273" as="targetPoint" />
          </mxGeometry>
        </mxCell>
        <mxCell id="7X8hMR-USZ19NnBhwpr9-15" value="結果表示" style="ellipse;shape=umlControl;whiteSpace=wrap;html=1;" vertex="1" parent="1">
          <mxGeometry x="370" y="330" width="70" height="80" as="geometry" />
        </mxCell>
        <mxCell id="7X8hMR-USZ19NnBhwpr9-16" value="" style="endArrow=classic;html=1;rounded=0;exitX=0;exitY=0.75;exitDx=0;exitDy=0;exitPerimeter=0;entryX=0.924;entryY=0.325;entryDx=0;entryDy=0;entryPerimeter=0;" edge="1" parent="1" source="7X8hMR-USZ19NnBhwpr9-12" target="7X8hMR-USZ19NnBhwpr9-15">
          <mxGeometry width="50" height="50" relative="1" as="geometry">
            <mxPoint x="380" y="260" as="sourcePoint" />
            <mxPoint x="472" y="298" as="targetPoint" />
          </mxGeometry>
        </mxCell>
        <mxCell id="7X8hMR-USZ19NnBhwpr9-18" value="RoboDog" style="ellipse;shape=umlEntity;whiteSpace=wrap;html=1;" vertex="1" parent="1">
          <mxGeometry x="640" y="260" width="80" height="80" as="geometry" />
        </mxCell>
        <mxCell id="7X8hMR-USZ19NnBhwpr9-19" value="時刻をを設定" style="text;align=center;fontStyle=1;verticalAlign=middle;spacingLeft=3;spacingRight=3;strokeColor=none;rotatable=0;points=[[0,0.5],[1,0.5]];portConstraint=eastwest;html=1;" vertex="1" parent="1">
          <mxGeometry x="550" y="260" width="80" height="26" as="geometry" />
        </mxCell>
        <mxCell id="7X8hMR-USZ19NnBhwpr9-20" value="" style="endArrow=classic;html=1;rounded=0;exitX=0.99;exitY=0.375;exitDx=0;exitDy=0;exitPerimeter=0;entryX=0;entryY=0.392;entryDx=0;entryDy=0;entryPerimeter=0;" edge="1" parent="1" source="7X8hMR-USZ19NnBhwpr9-12" target="7X8hMR-USZ19NnBhwpr9-18">
          <mxGeometry width="50" height="50" relative="1" as="geometry">
            <mxPoint x="570" y="340" as="sourcePoint" />
            <mxPoint x="620" y="290" as="targetPoint" />
          </mxGeometry>
        </mxCell>
        <mxCell id="7X8hMR-USZ19NnBhwpr9-21" value="" style="endArrow=classic;html=1;rounded=0;exitX=0;exitY=1;exitDx=0;exitDy=0;entryX=0.905;entryY=0.883;entryDx=0;entryDy=0;entryPerimeter=0;" edge="1" parent="1" source="7X8hMR-USZ19NnBhwpr9-18" target="7X8hMR-USZ19NnBhwpr9-12">
          <mxGeometry width="50" height="50" relative="1" as="geometry">
            <mxPoint x="590" y="430" as="sourcePoint" />
            <mxPoint x="580" y="400" as="targetPoint" />
          </mxGeometry>
        </mxCell>
        <mxCell id="7X8hMR-USZ19NnBhwpr9-22" value="&lt;br&gt;&lt;div&gt;挨拶を受け取る&lt;/div&gt;" style="text;align=center;fontStyle=1;verticalAlign=middle;spacingLeft=3;spacingRight=3;strokeColor=none;rotatable=0;points=[[0,0.5],[1,0.5]];portConstraint=eastwest;html=1;" vertex="1" parent="1">
          <mxGeometry x="550" y="300" width="80" height="26" as="geometry" />
        </mxCell>
        <mxCell id="7X8hMR-USZ19NnBhwpr9-23" value="時刻入力画面" style="shape=umlBoundary;whiteSpace=wrap;html=1;" vertex="1" parent="1">
          <mxGeometry x="110" y="340" width="100" height="80" as="geometry" />
        </mxCell>
        <mxCell id="7X8hMR-USZ19NnBhwpr9-24" value="" style="endArrow=classic;html=1;rounded=0;exitX=-0.029;exitY=0.592;exitDx=0;exitDy=0;exitPerimeter=0;entryX=1.027;entryY=0.475;entryDx=0;entryDy=0;entryPerimeter=0;" edge="1" parent="1" source="7X8hMR-USZ19NnBhwpr9-15" target="7X8hMR-USZ19NnBhwpr9-23">
          <mxGeometry width="50" height="50" relative="1" as="geometry">
            <mxPoint x="505" y="330" as="sourcePoint" />
            <mxPoint x="430" y="366" as="targetPoint" />
          </mxGeometry>
        </mxCell>
        <mxCell id="7X8hMR-USZ19NnBhwpr9-25" value="時刻に応じた挨拶表示画面" style="text;html=1;align=center;verticalAlign=middle;resizable=0;points=[];autosize=1;strokeColor=none;fillColor=none;" vertex="1" parent="1">
          <mxGeometry x="200" y="350" width="170" height="30" as="geometry" />
        </mxCell>
      </root>
    </mxGraphModel>
  </diagram>
</mxfile>
